#!OML:ASF F:\VICON\USERDATA\INSTALL\rory3\rory3.ASF
:FULLY-SPECIFIED
:DEGREES
849
root -1.93956 18.542 -3.6613 -2.00927 -12.5769 -1.32324
lowerback 8.17947 2.60575 1.89442
upperback 1.39116 3.60219 -0.666733
thorax -2.97755 1.76925 -2.12841
lowerneck -16.35 -2.19754 -6.08648
upperneck 7.7693 -2.98744 11.2866
head 5.28529 -0.854842 4.29483
rclavicle -2.87492e-014 1.21259e-014
rhumerus 42.8118 -36.5143 -76.966
rradius 148.516
rwrist -59.151
rhand -13.1421 5.585
rfingers 7.12502
rthumb 12.9562 -23.9927
lclavicle -2.87492e-014 1.21259e-014
lhumerus -34.8684 0.299038 63.7904
lradius 58.3882
lwrist 20.6251
lhand -27.7715 12.0717
lfingers 7.12502
lthumb -1.16521 42.0483
rfemur -10.1235 13.6809 22.8804
rtibia 29.7944
rfoot -16.3085 -10.2707
rtoes -0.661693
lfemur -21.1459 3.9205 -9.72109
ltibia 57.0172
lfoot -3.29326 8.3661
ltoes -5.35953
850
root -1.99045 18.5454 -3.69885 -2.07578 -12.3974 -1.24756
lowerback 8.6242 2.76983 1.94817
upperback 1.56781 3.82657 -0.771373
thorax -3.01979 1.88033 -2.30834
lowerneck -16.386 -2.3351 -6.09998
upperneck 7.5269 -3.14639 11.273
head 5.23044 -0.937127 4.27489
rclavicle 3.85891e-014 -1.03368e-014
rhumerus 43.3301 -36.8403 -78.2976
rradius 148.871
rwrist -59.9161
rhand -12.9396 5.2244
rfingers 7.12502
rthumb 13.1515 -24.3408
lclavicle 3.85891e-014 -1.03368e-014
lhumerus -34.9937 1.40496 63.0646
lradius 57.3364
lwrist 20.2394
lhand -27.6849 12.9426
lfingers 7.12502
lthumb -1.08157 42.9196
rfemur -10.1829 13.4276 22.9607
rtibia 29.7911
rfoot -16.1939 -10.1761
rtoes -0.318046
lfemur -23.2554 3.79699 -9.37169
ltibia 59.6722
lfoot -0.322896 7.93797
ltoes -3.28354
851
root -2.0394 18.5481 -3.74033 -2.12853 -12.1219 -1.24665
lowerback 9.05959 2.89486 2.04792
upperback 1.75959 4.00509 -0.820837
thorax -3.0425 1.96887 -2.45295
lowerneck -16.3457 -2.4493 -6.06833
upperneck 7.25064 -3.27143 11.1581
head 5.1463 -1.01141 4.2177
rclavicle -9.17143e-014 0
rhumerus 43.626 -36.8376 -79.3339
rradius 149.146
rwrist -59.7083
rhand -14.4825 6.14091
rfingers 7.12502
rthumb 11.6638 -23.5144
lclavicle -9.17143e-014 0
lhumerus -35.1692 2.55559 62.3867
lradius 56.4544
lwrist 19.8551
lhand -27.3003 12.7702
lfingers 7.12502
lthumb -0.710148 42.7488
rfemur -10.1785 13.0641 23.1178
rtibia 29.7306
rfoot -16.095 -10.0737
rtoes 0.0635569
lfemur -25.4374 3.58183 -8.96004
ltibia 62.3189
lfoot 2.68453 7.42776
ltoes -0.612422
852
root -2.08261 18.5516 -3.779 -2.21845 -11.9031 -1.2062
lowerback 9.46004 3.01953 2.15659
upperback 1.94492 4.18422 -0.863128
thorax -3.05078 2.05804 -2.59476
lowerneck -16.1154 -2.5332 -6.0856
upperneck 6.93827 -3.35384 11.0755
head 5.01753 -1.07037 4.18317
rclavicle -1.68718e-014 1.05356e-014
rhumerus 43.8098 -36.7833 -80.2691
rradius 149.41
rwrist -59.7302
rhand -16.1917 6.95265
rfingers 7.12502
rthumb 10.0153 -22.7891
lclavicle -1.68718e-014 1.05356e-014
lhumerus -35.5078 3.47221 61.833
lradius 55.9268
lwrist 20.2305
lhand -27.6947 12.9861
lfingers 7.12502
lthumb -1.09105 42.963
rfemur -10.1331 12.6899 23.2247
rtibia 29.6585
rfoot -16.1584 -9.93128
rtoes 0.981276
lfemur -27.5725 3.3872 -8.6351
ltibia 64.9759
lfoot 4.7903 6.57895
ltoes 0.448686
853
root -2.12222 18.5517 -3.81746 -2.26942 -11.7644 -1.26985
lowerback 9.79875 3.15022 2.35388
upperback 2.17515 4.38093 -0.854621
thorax -2.9729 2.15772 -2.73064
lowerneck -15.9534 -2.56485 -6.16418
upperneck 6.56465 -3.35126 11.0437
head 4.87583 -1.08513 4.18321
rclavicle -3.45388e-015 -1.09332e-014
rhumerus 44.1841 -36.8117 -81.423
rradius 149.69
rwrist -60.2808
rhand -15.8441 6.3224
rfingers 7.12502
rthumb 10.3506 -23.4029
lclavicle -3.45388e-015 -1.09332e-014
lhumerus -35.8568 4.19166 61.4261
lradius 55.7475
lwrist 21.2938
lhand -28.6334 13.6537
lfingers 7.12502
lthumb -1.9977 43.6241
rfemur -10.1266 12.4474 23.4353
rtibia 29.5362
rfoot -16.3242 -9.82753
rtoes 2.91914
lfemur -29.7319 3.28733 -8.21645
ltibia 67.6813
lfoot 5.99491 5.10965
ltoes -0.263754
